<?xml version="1.0" encoding="UTF-8" standalone="no"?>
<!DOCTYPE svg PUBLIC "-//W3C//DTD SVG 1.1//EN" "http://www.w3.org/Graphics/SVG/1.1/DTD/svg11.dtd">
<!-- Created with Vectornator (http://vectornator.io/) -->
<svg height="100%" stroke-miterlimit="10" style="fill-rule:nonzero;clip-rule:evenodd;stroke-linecap:round;stroke-linejoin:round;" version="1.1" viewBox="0 0 3370.82 2384.24" width="100%" xml:space="preserve" xmlns="http://www.w3.org/2000/svg" xmlns:vectornator="http://vectornator.io" xmlns:xlink="http://www.w3.org/1999/xlink">
<defs>
<filter color-interpolation-filters="sRGB" filterUnits="userSpaceOnUse" height="295.367" id="Filter" width="895.048" x="2488.27" y="574.13">
<feDropShadow dx="-3.67321e-05" dy="10" flood-color="#000000" flood-opacity="0.333" in="SourceGraphic" result="Shadow" stdDeviation="5"/>
</filter>
</defs>
<clipPath id="ArtboardFrame">
<rect height="2384.24" width="3370.82" x="0" y="0"/>
</clipPath>
<g clip-path="url(#ArtboardFrame)" id="图层-1" vectornator:layerName="图层 1">
<path d="M2500.77 679.69C2500.77 622.771 2547.55 576.63 2605.25 576.63L3266.33 576.63C3324.03 576.63 3370.82 622.771 3370.82 679.69L3370.82 743.937C3370.82 800.855 3324.03 846.997 3266.33 846.997L2605.25 846.997C2547.55 846.997 2500.77 800.855 2500.77 743.937L2500.77 679.69Z" fill="#a94bf2" fill-rule="nonzero" filter="url(#Filter)" stroke="none" vectornator:layerName="长方形 6" vectornator:shadowAngle="1.5708" vectornator:shadowColor="#000000" vectornator:shadowOffset="10" vectornator:shadowOpacity="0.333" vectornator:shadowRadius="10"/>
<path d="M0 680.809C0 625.298 46.7803 580.297 104.487 580.297L126.925 580.297C184.631 580.297 231.411 625.298 231.411 680.809L231.411 1711.69C231.411 1767.2 184.631 1812.2 126.925 1812.2L104.487 1812.2C46.7803 1812.2 0 1767.2 0 1711.69L0 680.809Z" fill="#a94bf2" fill-rule="nonzero" opacity="1" stroke="none" vectornator:layerName="长方形 1"/>
<path d="M0 683.357C0 626.439 41.7087 580.297 93.159 580.297L751.045 580.297C802.495 580.297 844.204 626.439 844.204 683.357L844.204 743.937C844.204 800.855 802.495 846.997 751.045 846.997L93.159 846.997C41.7087 846.997 0 800.855 0 743.937L0 683.357Z" fill="#a94bf2" fill-rule="nonzero" opacity="1" stroke="none" vectornator:layerName="长方形 34"/>
<path d="M1183.32 1385.08C1183.32 1328.16 1196.56 1282.02 1212.88 1282.02L1421.57 1282.02C1437.89 1282.02 1451.12 1328.16 1451.12 1385.08L1451.12 1445.66C1451.12 1502.58 1437.89 1548.72 1421.57 1548.72L1212.88 1548.72C1196.56 1548.72 1183.32 1502.58 1183.32 1445.66L1183.32 1385.08Z" fill="#ff7e27" fill-rule="nonzero" opacity="1" stroke="none" vectornator:layerName="长方形 30"/>
<path d="M536.176 1772.61C486.477 1743.68 486.952 1652.1 537.237 1568.04L1180.22 493.26C1230.51 409.207 1311.56 364.517 1361.26 393.443L1414.16 424.229C1463.86 453.155 1463.38 544.744 1413.1 628.797L770.11 1703.58C719.825 1787.63 638.771 1832.32 589.072 1803.4L536.176 1772.61Z" fill="#a94bf2" fill-rule="nonzero" opacity="1" stroke="none" vectornator:layerName="长方形 31"/>
<path d="M1316.08 393.776C1366.05 365.303 1446.91 411.128 1496.7 496.129L2133.33 1583.03C2183.12 1668.03 2182.98 1760.02 2133.01 1788.49L2079.83 1818.8C2029.86 1847.27 1948.99 1801.45 1899.21 1716.45L1262.58 629.546C1212.79 544.544 1212.93 452.555 1262.9 424.081L1316.08 393.776Z" fill="#a94bf2" fill-rule="nonzero" opacity="1" stroke="none" vectornator:layerName="长方形 32"/>
<path d="M1623.96 1152.19C1573.77 1124.1 1554.91 1063.38 1581.84 1016.57L1926.2 418.045C1953.13 371.237 2015.65 356.065 2065.84 384.158L2119.25 414.057C2169.44 442.149 2188.3 502.868 2161.37 549.676L1817.01 1148.2C1790.08 1195.01 1727.56 1210.18 1677.37 1182.09L1623.96 1152.19Z" fill="#a94bf2" fill-rule="nonzero" opacity="1" stroke="none" vectornator:layerName="长方形 33"/>
<path d="M2004.42 379.3C2054.22 350.538 2135.11 395.481 2185.1 479.682L2824.28 1556.35C2874.26 1640.55 2874.42 1732.12 2824.62 1760.88L2771.62 1791.49C2721.82 1820.25 2640.93 1775.31 2590.94 1691.11L1951.77 614.447C1901.78 530.246 1901.62 438.672 1951.42 409.911L2004.42 379.3Z" fill="#a94bf2" fill-rule="nonzero" opacity="1" stroke="none" vectornator:layerName="长方形 3"/>
<path d="M3139.4 668.574C3139.4 617.795 3186.18 576.63 3243.89 576.63L3266.33 576.63C3324.03 576.63 3370.82 617.795 3370.82 668.574L3370.82 1708.24C3370.82 1759.02 3324.03 1800.19 3266.33 1800.19L3243.89 1800.19C3186.18 1800.19 3139.4 1759.02 3139.4 1708.24L3139.4 668.574Z" fill="#a94bf2" fill-rule="nonzero" opacity="1" stroke="none" vectornator:layerName="长方形 7"/>
<path d="M0 1670.2C0 1613.28 46.7803 1567.14 104.487 1567.14L622.522 1567.14C680.229 1567.14 727.009 1613.28 727.009 1670.2L727.009 1724.19C727.009 1781.11 680.229 1827.25 622.522 1827.25L104.487 1827.25C46.7803 1827.25 0 1781.11 0 1724.19L0 1670.2Z" fill="#a94bf2" fill-rule="nonzero" opacity="1" stroke="none" vectornator:layerName="长方形 29"/>
<path d="M2636.22 1651.78C2636.22 1594.86 2680.17 1548.72 2734.39 1548.72L3272.65 1548.72C3326.86 1548.72 3370.82 1594.86 3370.82 1651.78L3370.82 1697.13C3370.82 1754.04 3326.86 1800.19 3272.65 1800.19L2734.39 1800.19C2680.17 1800.19 2636.22 1754.04 2636.22 1697.13L2636.22 1651.78Z" fill="#a94bf2" fill-rule="nonzero" opacity="1" stroke="none" vectornator:layerName="长方形 28"/>
<g fill="#000120" opacity="1" stroke="none" vectornator:layerName="Text 1">
<path d="M1296.48 2210.52L1340.97 2210.52L1340.97 2212.63C1340.97 2231.5 1347.62 2244.66 1360.93 2252.1C1374.23 2259.55 1391.97 2263.27 1414.12 2263.27C1433.46 2263.27 1449.7 2257.61 1462.83 2246.3C1475.96 2234.99 1482.52 2220.13 1482.52 2201.73C1482.52 2186.72 1476.9 2174.47 1465.64 2164.98C1454.27 2155.6 1437.1 2146.22 1414.12 2136.84L1396.36 2129.63C1372.21 2119.67 1354.16 2109.79 1342.2 2100C1330.25 2090.21 1321.34 2079.4 1315.47 2067.56C1309.61 2055.72 1306.68 2042.47 1306.68 2027.82C1306.68 2002.03 1315.8 1980.26 1334.03 1962.5C1352.25 1944.74 1380.77 1935.86 1419.57 1935.86C1455.21 1935.86 1480.3 1942.45 1494.83 1955.64C1509.37 1968.83 1516.64 1984.21 1516.64 2001.8L1516.64 2004.08L1472.15 2004.08L1472.15 2001.8C1472.15 1996.29 1469.92 1990.81 1465.47 1985.35C1461.01 1979.9 1454.3 1975.98 1445.33 1973.57C1436.37 1971.17 1426.55 1969.97 1415.88 1969.97C1394.08 1969.97 1377.93 1975.42 1367.44 1986.32C1356.94 1997.22 1351.7 2009.65 1351.7 2023.6C1351.7 2032.98 1354.19 2041.8 1359.17 2050.06C1364.15 2058.33 1371.01 2065.19 1379.74 2070.64C1388.48 2076.09 1403.16 2083.33 1423.79 2092.35L1444.72 2101.5C1478.13 2115.92 1500.46 2131.16 1511.71 2147.22C1522.85 2163.16 1528.42 2180.33 1528.42 2198.74C1528.42 2215.97 1523.88 2232.59 1514.79 2248.59C1505.71 2264.59 1493.1 2276.75 1476.98 2285.08C1460.87 2293.4 1439.38 2297.56 1412.54 2297.56C1387.1 2297.56 1365.85 2294.51 1348.8 2288.42C1331.74 2282.32 1318.76 2272.3 1309.85 2258.35C1300.94 2244.4 1296.48 2229.16 1296.48 2212.63L1296.48 2210.52Z"/>
<path d="M1593.3 2287.19L1552.16 2287.19L1691.95 1946.05L1736.79 1946.05L1865.86 2287.19L1817.85 2287.19L1782.51 2193.29L1631.99 2193.29L1593.3 2287.19ZM1645.35 2159.17L1769.32 2159.17L1709.53 2000.74L1645.35 2159.17Z"/>
<path d="M2012.16 2287.19L1967.14 2287.19L1889.77 1946.05L1932.15 1946.05L1986.48 2186.25L1993.87 2227.4L1995.8 2227.4L2003.36 2186.25L2065.79 1946.05L2109.75 1946.05L2170.59 2186.96L2177.62 2227.4L2179.56 2227.4L2186.94 2186.96L2242.86 1946.05L2281.9 1946.05L2202.42 2287.19L2157.4 2287.19L2094.27 2042.59L2086.18 2000.74L2084.07 2000.74L2076.34 2042.59L2012.16 2287.19Z"/>
</g>
</g>
</svg>
