<?xml version="1.0" encoding="UTF-8" standalone="no"?>
<!DOCTYPE svg PUBLIC "-//W3C//DTD SVG 1.1//EN" "http://www.w3.org/Graphics/SVG/1.1/DTD/svg11.dtd">
<!-- Created with Vectornator (http://vectornator.io/) -->
<svg height="100%" stroke-miterlimit="10" style="fill-rule:nonzero;clip-rule:evenodd;stroke-linecap:round;stroke-linejoin:round;" version="1.1" viewBox="0 0 841.995 595.35" width="100%" xml:space="preserve" xmlns="http://www.w3.org/2000/svg" xmlns:vectornator="http://vectornator.io" xmlns:xlink="http://www.w3.org/1999/xlink">
<defs/>
<g id="图层-1" vectornator:layerName="图层 1">
<g opacity="1" vectornator:layerName="live777-arch.excalidraw.svg">
<g opacity="1" vectornator:layerName="g">
<path d="M331.627 226.765C334.058 223.555 337.288 219.675 342.118 214.695M331.627 226.765C335.048 224.085 336.897 220.635 342.118 214.695M327.428 237.695C332.698 232.025 334.197 229.225 347.767 214.295M327.428 237.695C332.348 232.075 337.767 224.675 347.767 214.295M327.168 244.095C334.818 232.465 344.948 222.155 354.068 213.145M327.168 244.095C334.078 235.925 339.827 229.165 354.068 213.145M327.558 249.735C337.088 240.855 344.087 233.765 357.738 215.015M327.558 249.735C338.318 236.645 349.508 224.225 357.738 215.015M327.298 256.135C335.447 243.955 345.548 233.855 362.728 215.375M327.298 256.135C338.408 244.105 350.058 229.835 362.728 215.375M327.698 261.775C342.068 249.635 352.188 233.955 368.368 214.985M327.698 261.775C338.988 246.775 350.638 234.595 368.368 214.985M327.428 268.175C337.938 254.855 351.518 241.625 373.358 215.345M327.428 268.175C337.998 255.505 350.468 242.295 373.358 215.345M327.168 274.575C342.837 261.095 354.328 242.375 378.998 214.955M327.168 274.575C340.137 260.665 352.678 244.735 378.998 214.955M327.568 280.215C339.697 266.075 349.898 251.105 383.988 215.315M327.568 280.215C345.458 260.165 363.757 240.035 383.988 215.315M327.308 286.615C345.218 269.655 361.408 249.475 389.628 214.915M327.308 286.615C351.858 258.185 377.148 228.415 389.628 214.915M327.698 292.255C341.968 274.255 360.158 253.485 394.618 215.275M327.698 292.255C343.388 274.115 357.628 257.345 394.618 215.275M327.438 298.655C353.127 269.705 378.377 241.575 399.608 215.635M327.438 298.655C343.718 279.125 359.938 261.035 399.608 215.635M327.178 305.055C351.007 275.495 377.598 245.305 405.248 215.245M327.178 305.055C344.558 284.525 364.398 262.735 405.248 215.245M326.918 311.445C345.368 292.015 360.898 269.635 410.238 215.605M326.918 311.445C359.688 272.755 393.108 234.095 410.238 215.605M328.618 315.585C352.188 289.665 375.348 263.255 415.877 215.205M328.618 315.585C349.978 292.035 371.278 266.755 415.877 215.205M329.018 321.225C355.598 288.805 384.808 256.555 420.868 215.565M329.018 321.225C351.038 294.925 373.908 268.295 420.868 215.565M332.038 323.855C359.448 293.845 389.288 261.075 426.507 215.175M332.038 323.855C358.398 294.455 385.428 263.535 426.507 215.175M334.397 327.225C363.317 294.305 386.488 265.625 431.498 215.535M334.397 327.225C366.278 290.265 398.288 253.105 431.498 215.535M337.418 329.855C363.578 298.555 393.267 265.955 437.138 215.135M337.418 329.855C357.418 304.895 380.008 281.605 437.138 215.135M341.748 330.965C373.938 292.395 406.087 252.875 442.128 215.495M341.748 330.965C370.968 299.255 396.378 268.585 442.128 215.495M346.077 332.085C382.908 291.945 417.438 250.085 447.768 215.105M346.077 332.085C371.587 303.115 398.238 272.135 447.768 215.105M349.757 333.955C383.248 296.295 414.697 260.285 452.758 215.465M349.757 333.955C377.738 300.935 407.008 265.495 452.758 215.465M355.398 333.555C377.078 306.495 399.928 281.375 458.398 215.065M355.398 333.555C383.348 304.305 409.348 272.795 458.398 215.065M361.038 333.165C383.817 309.965 402.918 284.125 463.388 215.425M361.038 333.165C387.348 301.395 416.248 269.255 463.388 215.425M366.028 333.525C395.868 297.695 429.077 264.325 469.028 215.035M366.028 333.525C389.317 308.765 410.007 283.185 469.028 215.035M371.668 333.125C412.808 284.755 451.958 238.885 474.018 215.395M371.668 333.125C406.658 291.685 441.588 251.735 474.018 215.395M376.658 333.485C415.898 288.455 456.678 243.545 479.658 215.005M376.658 333.485C412.337 293.515 446.858 252.075 479.658 215.005M382.298 333.095C405.598 302.545 433.888 273.615 484.648 215.365M382.298 333.095C410.618 301.295 438.048 268.855 484.648 215.365M387.288 333.455C419.918 292.845 456.098 254.145 490.288 214.965M387.288 333.455C408.508 308.275 429.887 283.105 490.288 214.965M392.278 333.815C427.798 292.005 465.398 250.585 496.587 213.815M392.278 333.815C415.408 306.075 438.778 279.855 496.587 213.815M397.918 333.425C421.498 308.365 445.658 277.665 500.918 214.935M397.918 333.425C421.217 306.805 445.298 280.095 500.918 214.935M402.908 333.785C422.827 306.705 448.428 282.295 505.908 215.295M402.908 333.785C431.548 300.065 460.858 266.555 505.908 215.295M408.548 333.385C432.108 306.795 453.128 281.055 510.238 216.405M408.548 333.385C443.908 293.455 477.938 254.025 510.238 216.405M413.538 333.745C453.058 289.185 491.768 245.945 513.908 218.275M413.538 333.745C441.428 300.295 471.488 266.555 513.908 218.275M419.178 333.355C441.028 308.935 464.998 282.695 516.928 220.895M419.178 333.355C452.067 297.215 482.648 259.035 516.928 220.895M424.168 333.715C459.338 294.765 495.448 255.285 519.947 223.525M424.168 333.715C461.308 291.635 498.878 247.815 519.947 223.525M429.808 333.315C456.378 301.275 482.738 273.195 522.967 226.145M429.808 333.315C457.928 300.935 487.588 267.195 522.967 226.145M434.798 333.675C460.798 304.055 483.418 277.775 524.017 231.035M434.798 333.675C462.008 301.985 490.728 270.395 524.017 231.035M440.438 333.285C472.408 295.845 509.398 257.725 525.067 235.925M440.438 333.285C462.688 307.375 484.758 282.185 525.067 235.925M445.428 333.645C475.078 298.815 505.608 261.265 524.808 242.325M445.428 333.645C466.498 310.345 488.598 284.605 524.808 242.325M451.068 333.245C468.498 313.575 489.097 289.905 524.548 248.725M451.068 333.245C471.148 309.565 491.688 286.075 524.548 248.725M456.058 333.605C481.668 302.215 508.428 271.575 524.938 254.365M456.058 333.605C473.597 311.485 493.608 289.975 524.938 254.365M461.698 333.215C480.818 307.465 505.597 282.995 524.678 260.765M461.698 333.215C480.808 311.545 499.028 289.585 524.678 260.765M466.688 333.575C485.998 314.145 502.618 292.255 525.077 266.405M466.688 333.575C480.038 318.355 493.428 302.725 525.077 266.405M472.328 333.175C482.028 318.505 492.598 307.215 524.808 272.805M472.328 333.175C483.757 321.445 492.768 309.065 524.808 272.805M477.317 333.535C490.058 320.665 498.548 305.855 525.207 278.445M477.317 333.535C486.648 321.695 497.528 311.215 525.207 278.445M482.958 333.145C492.078 322.585 501.658 313.395 524.947 284.845M482.958 333.145C494.838 318.815 507.788 304.605 524.947 284.845M487.947 333.505C503.298 319.185 515.178 300.845 525.337 290.485M487.947 333.505C501.838 316.295 517.148 299.675 525.337 290.485M493.587 333.105C501.248 327.605 506.738 316.935 525.077 296.885M493.587 333.105C501.708 322.865 510.118 312.735 525.077 296.885M497.257 334.975C506.248 325.105 517.957 311.865 524.817 303.285M497.257 334.975C507.627 323.525 516.058 311.565 524.817 303.285M503.558 333.835C513.638 322.895 521.547 314.495 524.557 309.675M503.558 333.835C511.558 324.245 519.628 314.955 524.557 309.675M513.138 328.905C515.227 325.915 518.618 323.315 521.018 319.855M513.138 328.905C516.278 326.095 518.717 323.315 521.018 319.855" fill="none" opacity="1" stroke="#ff0505" stroke-linecap="round" stroke-linejoin="miter" stroke-width="0.5" vectornator:layerName="path"/>
<path d="M354.558 212.675C392.538 214.325 433.767 211.025 494.558 212.675M354.558 212.675C395.498 211.755 437.458 212.295 494.558 212.675M494.558 212.675C516.268 210.825 524.557 222.055 524.557 242.675M494.558 212.675C513.138 213.775 525.527 224.765 524.557 242.675M524.557 242.675C524.378 257.805 525.048 273.685 524.557 302.675M524.557 242.675C523.957 255.645 525.618 269.545 524.557 302.675M524.557 302.675C525.268 324.275 514.487 333.205 494.558 332.675M524.557 302.675C526.518 321.445 512.548 334.445 494.558 332.675M494.558 332.675C454.788 331.995 412.178 332.905 354.558 332.675M494.558 332.675C462.238 332.835 430.388 334.375 354.558 332.675M354.558 332.675C335.018 331.465 326.358 322.845 324.558 302.675M354.558 332.675C333.587 333.265 322.447 321.815 324.558 302.675M324.558 302.675C323.198 280.865 326.397 263.785 324.558 242.675M324.558 302.675C324.088 284.685 325.387 269.145 324.558 242.675M324.558 242.675C326.418 222.435 335.608 214.405 354.558 212.675M324.558 242.675C324.298 221.275 333.598 212.715 354.558 212.675" fill="none" opacity="1" stroke="#ff0505" stroke-linecap="round" stroke-linejoin="miter" stroke-width="1" vectornator:layerName="path"/>
</g>
<g opacity="1" vectornator:layerName="g">
<path d="M25.8275 248.355C28.0975 246.295 29.4475 243.575 35.0175 237.795M25.8275 248.355C27.8775 245.425 30.5575 242.325 35.0175 237.795M25.5675 254.755C33.1875 245.945 41.3275 239.135 44.5975 232.865M25.5675 254.755C31.2675 248.905 35.0675 243.845 44.5975 232.865M25.3075 261.155C31.5575 253.705 37.5875 247.305 50.2375 232.475M25.3075 261.155C31.5575 253.495 36.7375 245.745 50.2375 232.475M25.6975 266.795C35.1575 253.205 47.6275 242.315 55.2275 232.835M25.6975 266.795C34.9175 254.295 46.2175 244.465 55.2275 232.835M25.4375 273.195C36.0675 259.825 49.0775 247.565 60.8675 232.435M25.4375 273.195C37.2475 259.545 47.7075 246.575 60.8675 232.435M25.8375 278.835C40.8975 262.295 57.5975 242.465 65.8575 232.795M25.8375 278.835C36.3175 264.855 49.1475 252.625 65.8575 232.795M25.5775 285.235C34.2775 271.065 46.7775 259.975 71.4975 232.405M25.5775 285.235C42.2275 266.535 59.2275 246.305 71.4975 232.405M25.3075 291.635C42.3475 269.875 60.1075 250.255 76.4875 232.765M25.3075 291.635C39.3075 276.885 52.9375 261.625 76.4875 232.765M25.0475 298.025C37.1175 282.735 50.0175 268.125 81.4675 233.125M25.0475 298.025C36.1175 283.635 48.8675 270.675 81.4675 233.125M26.7575 302.165C47.5975 278.485 72.3675 252.365 87.1175 232.725M26.7575 302.165C44.9775 279.865 64.3975 257.655 87.1175 232.725M28.4675 306.295C49.5175 280.265 71.3875 255.335 92.0975 233.085M28.4675 306.295C46.8375 284.535 65.9275 263.395 92.0975 233.085M31.4875 308.925C46.9575 289.285 65.3175 269.805 97.7475 232.695M31.4875 308.925C49.3975 288.515 68.0275 267.345 97.7475 232.695M34.4975 311.545C53.5475 289.625 69.5075 268.175 102.728 233.055M34.4975 311.545C50.0975 293.075 65.0175 275.755 102.728 233.055M38.8275 312.655C66.5575 282.395 94.6575 251.025 108.377 232.665M38.8275 312.655C57.5575 291.885 75.7175 270.585 108.377 232.665M43.1675 313.775C60.3475 292.405 78.1975 273.765 113.358 233.025M43.1675 313.775C60.9375 294.665 76.7675 276.305 113.358 233.025M47.4975 314.885C64.3175 294.295 81.6975 273.075 119.008 232.625M47.4975 314.885C76.3975 283.555 103.968 251.055 119.008 232.625M52.4775 315.245C75.0275 288.715 97.9875 262.255 123.987 232.985M52.4775 315.245C71.1875 293.225 90.1875 270.905 123.987 232.985M58.1275 314.855C83.3975 286.635 108.198 259.835 129.637 232.595M58.1275 314.855C74.8875 293.075 95.0875 272.195 129.637 232.595M63.1075 315.215C84.4775 290.415 104.477 265.165 134.618 232.955M63.1075 315.215C86.5875 287.375 109.088 261.035 134.618 232.955M68.7575 314.825C92.7275 284.395 122.527 254.125 140.267 232.555M68.7575 314.825C85.4775 295.715 101.278 276.265 140.267 232.555M73.7375 315.185C90.9875 295.795 103.177 279.365 145.248 232.915M73.7375 315.185C99.1275 287.165 124.938 256.775 145.248 232.915M79.3875 314.785C102.207 289.955 126.468 264.775 149.588 234.035M79.3875 314.785C106.168 284.345 132.287 252.625 149.588 234.035M84.3675 315.145C102.257 295.325 119.118 274.355 153.918 235.145M84.3675 315.145C105.488 289.435 129.048 263.655 153.918 235.145M90.0175 314.755C104.108 298.215 117.447 283.845 158.248 236.265M90.0175 314.755C113.368 286.945 139.007 259.375 158.248 236.265M94.9975 315.115C111.958 295.285 127.118 279.475 160.607 239.645M94.9975 315.115C115.517 291.605 137.728 266.335 160.607 239.645M100.647 314.715C119.077 293.215 136.678 274.325 163.627 242.265M100.647 314.715C120.248 293.315 138.498 271.905 163.627 242.265M105.627 315.075C122.988 291.595 143.278 270.165 165.338 246.395M105.627 315.075C123.717 293.125 141.928 273.325 165.338 246.395M110.618 315.435C122.148 300.935 137.047 285.895 167.037 250.535M110.618 315.435C128.858 294.325 145.418 274.045 167.037 250.535M116.257 315.045C130.558 298.845 145.868 282.145 167.438 256.175M116.257 315.045C134.058 295.655 151.708 274.395 167.438 256.175M121.248 315.405C139.298 296.045 156.238 276.815 167.178 262.575M121.248 315.405C132.548 302.615 143.077 291.155 167.178 262.575M126.888 315.005C140.287 301.415 149.827 287.485 166.907 268.975M126.888 315.005C140.178 299.385 154.778 281.345 166.907 268.975M131.877 315.365C142.958 306.375 150.398 292.785 167.308 274.615M131.877 315.365C140.327 305.855 148.968 295.535 167.308 274.615M137.517 314.975C148.298 304.725 156.597 292.615 167.048 281.015M137.517 314.975C143.928 308.135 149.288 300.955 167.048 281.015M144.478 313.065C153.998 303.945 160.588 293.205 167.438 286.655M144.478 313.065C149.618 308.465 154.947 300.995 167.438 286.655M151.428 311.165C156.537 306.135 160.197 301.535 166.518 293.805M151.428 311.165C156.998 305.905 162.488 298.585 166.518 293.805" fill="none" opacity="1" stroke="#02f1f8" stroke-linecap="round" stroke-linejoin="miter" stroke-width="0.5" vectornator:layerName="path"/>
<path d="M44.5575 232.675C68.7675 232.555 95.7975 231.575 144.557 232.675M44.5575 232.675C66.2375 232.285 89.0975 232.165 144.557 232.675M144.557 232.675C156.738 234.155 165.248 238.735 164.557 252.675M144.557 232.675C157.438 232.315 165.808 237.855 164.557 252.675M164.557 252.675C166.018 268.185 163.938 279.665 164.557 292.675M164.557 252.675C164.248 263.785 164.157 272.655 164.557 292.675M164.557 292.675C163.358 306.575 157.208 313.385 144.557 312.675M164.557 292.675C164.988 306.485 155.738 311.165 144.557 312.675M144.557 312.675C105.168 314.025 66.9975 313.535 44.5575 312.675M144.557 312.675C119.198 312.655 95.4875 313.655 44.5575 312.675M44.5575 312.675C29.8375 313.625 23.0575 306.645 24.5575 292.675M44.5575 312.675C31.6575 313.655 24.5575 307.585 24.5575 292.675M24.5575 292.675C26.6575 282.025 23.1075 271.885 24.5575 252.675M24.5575 292.675C25.7275 282.795 25.7675 270.715 24.5575 252.675M24.5575 252.675C25.7075 238.165 31.5775 233.365 44.5575 232.675M24.5575 252.675C26.0375 240.005 29.1875 231.575 44.5575 232.675" fill="none" opacity="1" stroke="#02f1f8" stroke-linecap="round" stroke-linejoin="miter" stroke-width="1" vectornator:layerName="path"/>
</g>
<g opacity="1" vectornator:layerName="text">
<path d="M64.9638 248.698L70.1278 248.698C71.1486 248.698 71.9716 248.986 72.5966 249.562C73.2216 250.137 73.5341 250.946 73.5341 251.988C73.5341 252.883 73.2554 253.663 72.6981 254.327C72.1408 254.991 71.2841 255.323 70.1278 255.323L66.5184 255.323L66.5184 260.175L64.9638 260.175L64.9638 248.698ZM71.9638 251.995C71.9638 251.152 71.6513 250.579 71.0263 250.277C70.6825 250.115 70.2111 250.034 69.6122 250.034L66.5184 250.034L66.5184 254.011L69.6122 254.011C70.3101 254.011 70.8765 253.863 71.3114 253.566C71.7463 253.269 71.9638 252.745 71.9638 251.995Z" fill="#02f1f8" fill-rule="nonzero" opacity="1" stroke="none" vectornator:layerName="path"/>
<path d="M75.3388 251.808L76.6747 251.808L76.6747 253.253C76.7841 252.972 77.0523 252.629 77.4794 252.226C77.9065 251.822 78.3986 251.62 78.9559 251.62C78.982 251.62 79.0262 251.623 79.0888 251.628C79.1513 251.633 79.258 251.644 79.4091 251.659L79.4091 253.144C79.3257 253.128 79.2489 253.118 79.1786 253.113C79.1083 253.107 79.0315 253.105 78.9481 253.105C78.2398 253.105 77.6955 253.333 77.3153 253.788C76.9351 254.244 76.745 254.769 76.745 255.363L76.745 260.175L75.3388 260.175L75.3388 251.808Z" fill="#02f1f8" fill-rule="nonzero" opacity="1" stroke="none" vectornator:layerName="path"/>
<path d="M83.9481 259.269C84.8804 259.269 85.5197 258.916 85.8661 258.21C86.2124 257.504 86.3856 256.719 86.3856 255.855C86.3856 255.073 86.2606 254.438 86.0106 253.948C85.6148 253.178 84.9325 252.792 83.9638 252.792C83.1044 252.792 82.4794 253.12 82.0888 253.777C81.6981 254.433 81.5028 255.224 81.5028 256.152C81.5028 257.042 81.6981 257.784 82.0888 258.378C82.4794 258.972 83.0992 259.269 83.9481 259.269ZM84.0028 251.566C85.0809 251.566 85.9924 251.925 86.7372 252.644C87.482 253.363 87.8544 254.42 87.8544 255.816C87.8544 257.165 87.5263 258.279 86.87 259.159C86.2137 260.04 85.1955 260.48 83.8153 260.48C82.6643 260.48 81.7502 260.09 81.0731 259.312C80.396 258.533 80.0575 257.488 80.0575 256.175C80.0575 254.769 80.4143 253.649 81.1278 252.816C81.8414 251.982 82.7997 251.566 84.0028 251.566Z" fill="#02f1f8" fill-rule="nonzero" opacity="1" stroke="none" vectornator:layerName="path"/>
<path d="M90.4169 256.089C90.4169 256.985 90.607 257.735 90.9872 258.339C91.3674 258.943 91.9768 259.245 92.8153 259.245C93.4664 259.245 94.0015 258.965 94.4208 258.405C94.8401 257.846 95.0497 257.042 95.0497 255.995C95.0497 254.938 94.8335 254.155 94.4013 253.648C93.969 253.14 93.4351 252.886 92.7997 252.886C92.0914 252.886 91.5171 253.157 91.077 253.698C90.6369 254.24 90.4169 255.037 90.4169 256.089ZM92.5341 251.659C93.1747 251.659 93.7111 251.795 94.1434 252.066C94.3934 252.222 94.6773 252.495 94.995 252.886L94.995 248.659L96.3466 248.659L96.3466 260.175L95.0809 260.175L95.0809 259.011C94.7528 259.527 94.3648 259.899 93.9169 260.128C93.469 260.357 92.9559 260.472 92.3778 260.472C91.4455 260.472 90.6382 260.08 89.9559 259.296C89.2736 258.512 88.9325 257.469 88.9325 256.167C88.9325 254.948 89.2437 253.892 89.8661 252.999C90.4885 252.106 91.3778 251.659 92.5341 251.659Z" fill="#02f1f8" fill-rule="nonzero" opacity="1" stroke="none" vectornator:layerName="path"/>
<path d="M99.8309 251.808L99.8309 257.363C99.8309 257.79 99.8986 258.139 100.034 258.409C100.284 258.909 100.75 259.159 101.433 259.159C102.412 259.159 103.078 258.722 103.433 257.847C103.625 257.378 103.722 256.735 103.722 255.917L103.722 251.808L105.128 251.808L105.128 260.175L103.8 260.175L103.815 258.941C103.633 259.258 103.406 259.527 103.136 259.745C102.599 260.183 101.948 260.402 101.183 260.402C99.9898 260.402 99.1773 260.003 98.745 259.206C98.5106 258.779 98.3934 258.209 98.3934 257.495L98.3934 251.808L99.8309 251.808Z" fill="#02f1f8" fill-rule="nonzero" opacity="1" stroke="none" vectornator:layerName="path"/>
<path d="M110.55 251.566C111.492 251.566 112.259 251.795 112.85 252.253C113.442 252.711 113.797 253.501 113.917 254.62L112.55 254.62C112.466 254.105 112.276 253.676 111.979 253.335C111.682 252.994 111.206 252.823 110.55 252.823C109.654 252.823 109.013 253.261 108.628 254.136C108.378 254.704 108.253 255.404 108.253 256.238C108.253 257.076 108.43 257.782 108.784 258.355C109.138 258.928 109.696 259.214 110.456 259.214C111.039 259.214 111.502 259.036 111.843 258.679C112.184 258.322 112.419 257.834 112.55 257.214L113.917 257.214C113.761 258.323 113.37 259.135 112.745 259.648C112.12 260.161 111.321 260.417 110.347 260.417C109.253 260.417 108.38 260.017 107.729 259.218C107.078 258.418 106.753 257.42 106.753 256.222C106.753 254.753 107.11 253.61 107.823 252.792C108.537 251.974 109.446 251.566 110.55 251.566Z" fill="#02f1f8" fill-rule="nonzero" opacity="1" stroke="none" vectornator:layerName="path"/>
<path d="M118.808 251.62C119.401 251.62 119.977 251.76 120.534 252.038C121.091 252.317 121.516 252.678 121.808 253.12C122.089 253.542 122.276 254.034 122.37 254.597C122.453 254.982 122.495 255.597 122.495 256.441L116.362 256.441C116.388 257.29 116.589 257.971 116.964 258.484C117.339 258.997 117.919 259.253 118.706 259.253C119.44 259.253 120.026 259.011 120.464 258.527C120.714 258.245 120.891 257.92 120.995 257.55L122.378 257.55C122.341 257.857 122.22 258.2 122.015 258.577C121.809 258.955 121.578 259.264 121.323 259.503C120.896 259.92 120.367 260.201 119.737 260.347C119.399 260.43 119.016 260.472 118.589 260.472C117.547 260.472 116.664 260.093 115.94 259.335C115.216 258.577 114.854 257.516 114.854 256.152C114.854 254.808 115.219 253.717 115.948 252.878C116.677 252.04 117.63 251.62 118.808 251.62ZM121.05 255.323C120.992 254.714 120.86 254.227 120.651 253.863C120.266 253.185 119.623 252.847 118.722 252.847C118.076 252.847 117.534 253.08 117.097 253.546C116.659 254.012 116.427 254.605 116.401 255.323L121.05 255.323Z" fill="#02f1f8" fill-rule="nonzero" opacity="1" stroke="none" vectornator:layerName="path"/>
<path d="M124.261 251.808L125.597 251.808L125.597 253.253C125.706 252.972 125.974 252.629 126.401 252.226C126.828 251.822 127.321 251.62 127.878 251.62C127.904 251.62 127.948 251.623 128.011 251.628C128.073 251.633 128.18 251.644 128.331 251.659L128.331 253.144C128.248 253.128 128.171 253.118 128.1 253.113C128.03 253.107 127.953 253.105 127.87 253.105C127.162 253.105 126.617 253.333 126.237 253.788C125.857 254.244 125.667 254.769 125.667 255.363L125.667 260.175L124.261 260.175L124.261 251.808Z" fill="#02f1f8" fill-rule="nonzero" opacity="1" stroke="none" vectornator:layerName="path"/>
</g>
<g opacity="1" vectornator:layerName="g">
<path d="M685.827 248.355C687.697 245.185 690.077 242.615 695.017 237.795M685.827 248.355C687.398 245.545 690.117 243.615 695.017 237.795M685.567 254.755C691.148 248.615 700.538 240.195 704.597 232.865M685.567 254.755C690.918 247.465 697.467 240.075 704.597 232.865M685.308 261.155C693.257 250.285 702.107 240.325 710.237 232.475M685.308 261.155C692.327 252.625 699.888 244.755 710.237 232.475M685.697 266.795C692.237 257.515 701.678 248.295 715.227 232.835M685.697 266.795C693.388 257.685 702.008 248.025 715.227 232.835M685.438 273.195C696.008 261.625 703.128 250.335 720.867 232.435M685.438 273.195C693.678 263.465 700.967 254.925 720.867 232.435M685.837 278.835C701.638 261.715 718.138 243.675 725.857 232.795M685.837 278.835C696.998 266.805 707.357 254.485 725.857 232.795M685.577 285.235C696.987 270.665 708.967 258.785 731.498 232.405M685.577 285.235C697.428 272.835 707.538 261.055 731.498 232.405M685.308 291.635C697.067 276.735 709.327 261.415 736.487 232.765M685.308 291.635C705.987 269.355 725.508 246.105 736.487 232.765M685.048 298.025C702.957 276.915 721.138 255.945 741.467 233.125M685.048 298.025C699.808 280.685 714.737 263.045 741.467 233.125M686.758 302.165C708.217 278.295 729.227 255.845 747.117 232.725M686.758 302.165C700.768 283.665 718.087 266.085 747.117 232.725M688.467 306.295C707.467 284.135 725.158 261.555 752.097 233.085M688.467 306.295C709.408 281.415 729.278 258.075 752.097 233.085M691.487 308.925C713.558 280.685 741.447 252.615 757.748 232.695M691.487 308.925C706.998 291.225 721.577 273.165 757.748 232.695M694.498 311.545C711.038 292.975 722.527 277.345 762.727 233.055M694.498 311.545C718.717 284.865 743.347 255.825 762.727 233.055M698.827 312.655C721.438 288.065 745.487 263.135 768.377 232.665M698.827 312.655C725.357 282.505 751.238 251.075 768.377 232.665M703.168 313.775C721.207 293.765 738.248 272.595 773.357 233.025M703.168 313.775C724.487 287.825 748.258 261.805 773.357 233.025M707.498 314.885C722.278 297.585 736.278 282.455 779.008 232.625M707.498 314.885C732.008 285.725 758.808 256.825 779.008 232.625M712.477 315.245C730.837 293.805 747.408 276.375 783.988 232.985M712.477 315.245C734.888 289.575 758.988 262.145 783.988 232.985M718.128 314.855C738.908 290.625 758.867 269.035 789.638 232.595M718.128 314.855C740.248 290.635 760.988 266.365 789.638 232.595M723.107 315.215C744.107 287.375 768.168 261.605 794.617 232.955M723.107 315.215C744.778 289.085 766.538 265.205 794.617 232.955M728.758 314.825C743.638 296.505 761.717 277.795 800.268 232.555M728.758 314.825C751.808 288.265 773.127 262.525 800.268 232.555M733.737 315.185C754.187 292.245 775.498 268.645 805.248 232.915M733.737 315.185C758.438 287.745 783.067 258.445 805.248 232.915M739.388 314.785C766.178 285.235 791.877 255.945 809.587 234.035M739.388 314.785C756.158 295.595 772.317 277.655 809.587 234.035M744.367 315.145C766.337 291.145 784.758 266.985 813.918 235.145M744.367 315.145C768.038 287.495 793.258 257.235 813.918 235.145M750.018 314.755C769.658 295.695 785.808 272.085 818.248 236.265M750.018 314.755C765.928 296.525 782.357 277.245 818.248 236.265M754.998 315.115C777.388 291.985 796.938 266.925 820.607 239.645M754.998 315.115C768.337 300.165 780.957 284.645 820.607 239.645M760.648 314.715C784.847 289.295 805.817 262.015 823.627 242.265M760.648 314.715C774.337 300.345 788.138 283.125 823.627 242.265M765.627 315.075C781.317 297.205 795.758 280.205 825.337 246.395M765.627 315.075C787.168 291.705 808.357 266.305 825.337 246.395M770.617 315.435C783.347 298.135 798.988 280.185 827.038 250.535M770.617 315.435C782.207 300.635 795.398 286.125 827.038 250.535M776.258 315.045C787.627 300.205 800.327 287.415 827.438 256.175M776.258 315.045C788.678 302.435 801.018 287.545 827.438 256.175M781.248 315.405C793.697 300.045 808.827 284.955 827.178 262.575M781.248 315.405C791.288 304.045 801.877 292.325 827.178 262.575M786.888 315.005C793.988 305.135 803.188 297.005 826.908 268.975M786.888 315.005C799.158 301.185 810.638 286.665 826.908 268.975M791.877 315.365C803.847 301.045 814.898 289.855 827.308 274.615M791.877 315.365C803.498 300.215 816.748 288.065 827.308 274.615M797.518 314.975C804.908 304.145 812.688 298.685 827.048 281.015M797.518 314.975C808.587 302.265 818.957 290.815 827.048 281.015M804.477 313.065C811.817 301.775 820.148 293.085 827.438 286.655M804.477 313.065C809.837 306.475 813.837 300.775 827.438 286.655M811.428 311.165C816.467 306.265 821.188 300.445 826.518 293.805M811.428 311.165C815.668 307.885 819.238 303.065 826.518 293.805" fill="none" opacity="1" stroke="#22fc07" stroke-linecap="round" stroke-linejoin="miter" stroke-width="0.5" vectornator:layerName="path"/>
<path d="M704.558 232.675C742.847 234.665 784.428 234.365 804.558 232.675M704.558 232.675C730.018 231.655 755.447 232.865 804.558 232.675M804.558 232.675C819.528 234.545 825.327 237.855 824.558 252.675M804.558 232.675C817.138 233.535 826.688 238.945 824.558 252.675M824.558 252.675C825.418 262.805 824.707 273.865 824.558 292.675M824.558 252.675C825.398 266.365 825.357 281.655 824.558 292.675M824.558 292.675C824.408 304.135 816.317 314.435 804.558 312.675M824.558 292.675C824.847 304.945 820.138 310.765 804.558 312.675M804.558 312.675C767.738 314.045 727.538 313.105 704.558 312.675M804.558 312.675C773.268 313.215 742.248 313.275 704.558 312.675M704.558 312.675C691.188 313.835 685.337 304.735 684.558 292.675M704.558 312.675C690.227 314.255 685.418 306.715 684.558 292.675M684.558 292.675C684.528 275.705 686.207 261.995 684.558 252.675M684.558 292.675C684.668 283.705 683.798 275.765 684.558 252.675M684.558 252.675C684.067 241.055 689.378 232.675 704.558 232.675M684.558 252.675C683.837 237.925 692.317 233.645 704.558 232.675" fill="none" opacity="1" stroke="#22fc07" stroke-linecap="round" stroke-linejoin="miter" stroke-width="1" vectornator:layerName="path"/>
</g>
<g opacity="1" vectornator:layerName="text">
<path d="M725.21 248.386C726.663 248.386 727.791 248.769 728.593 249.534C729.395 250.3 729.84 251.17 729.929 252.144L728.413 252.144C728.241 251.404 727.899 250.818 727.386 250.386C726.873 249.954 726.153 249.738 725.225 249.738C724.095 249.738 723.182 250.135 722.487 250.929C721.792 251.723 721.444 252.941 721.444 254.581C721.444 255.925 721.758 257.015 722.386 257.851C723.013 258.687 723.949 259.105 725.194 259.105C726.34 259.105 727.212 258.665 727.811 257.784C728.129 257.321 728.366 256.711 728.522 255.956L730.038 255.956C729.903 257.165 729.455 258.178 728.694 258.995C727.783 259.98 726.554 260.472 725.007 260.472C723.673 260.472 722.554 260.068 721.647 259.261C720.455 258.193 719.858 256.545 719.858 254.316C719.858 252.623 720.306 251.235 721.202 250.152C722.171 248.974 723.507 248.386 725.21 248.386Z" fill="#22fc07" fill-rule="nonzero" opacity="1" stroke="none" vectornator:layerName="path"/>
<path d="M735.061 259.269C735.994 259.269 736.633 258.916 736.979 258.21C737.326 257.504 737.499 256.719 737.499 255.855C737.499 255.073 737.374 254.438 737.124 253.948C736.728 253.178 736.046 252.792 735.077 252.792C734.218 252.792 733.593 253.12 733.202 253.777C732.811 254.433 732.616 255.224 732.616 256.152C732.616 257.042 732.811 257.784 733.202 258.378C733.593 258.972 734.212 259.269 735.061 259.269ZM735.116 251.566C736.194 251.566 737.106 251.925 737.85 252.644C738.595 253.363 738.968 254.42 738.968 255.816C738.968 257.165 738.64 258.279 737.983 259.159C737.327 260.04 736.309 260.48 734.929 260.48C733.778 260.48 732.863 260.09 732.186 259.312C731.509 258.533 731.171 257.488 731.171 256.175C731.171 254.769 731.528 253.649 732.241 252.816C732.955 251.982 733.913 251.566 735.116 251.566Z" fill="#22fc07" fill-rule="nonzero" opacity="1" stroke="none" vectornator:layerName="path"/>
<path d="M740.64 251.808L741.975 251.808L741.975 252.995C742.371 252.506 742.791 252.154 743.233 251.941C743.676 251.727 744.168 251.62 744.71 251.62C745.897 251.62 746.699 252.034 747.116 252.863C747.345 253.316 747.46 253.964 747.46 254.808L747.46 260.175L746.03 260.175L746.03 254.902C746.03 254.391 745.955 253.98 745.804 253.667C745.554 253.146 745.1 252.886 744.444 252.886C744.111 252.886 743.837 252.92 743.624 252.988C743.238 253.102 742.9 253.331 742.608 253.675C742.374 253.951 742.222 254.236 742.151 254.53C742.081 254.825 742.046 255.245 742.046 255.792L742.046 260.175L740.64 260.175L740.64 251.808Z" fill="#22fc07" fill-rule="nonzero" opacity="1" stroke="none" vectornator:layerName="path"/>
<path d="M750.374 257.55C750.416 258.019 750.533 258.378 750.725 258.628C751.08 259.081 751.694 259.308 752.569 259.308C753.09 259.308 753.548 259.195 753.944 258.968C754.34 258.741 754.538 258.391 754.538 257.917C754.538 257.558 754.379 257.284 754.061 257.097C753.858 256.982 753.457 256.849 752.858 256.698L751.741 256.417C751.028 256.24 750.501 256.042 750.163 255.823C749.559 255.443 749.257 254.917 749.257 254.245C749.257 253.454 749.542 252.813 750.112 252.323C750.682 251.834 751.449 251.589 752.413 251.589C753.673 251.589 754.582 251.959 755.14 252.698C755.488 253.167 755.658 253.672 755.647 254.214L754.319 254.214C754.293 253.896 754.181 253.607 753.983 253.347C753.66 252.977 753.1 252.792 752.304 252.792C751.772 252.792 751.37 252.894 751.097 253.097C750.823 253.3 750.686 253.568 750.686 253.902C750.686 254.266 750.866 254.558 751.225 254.777C751.434 254.907 751.741 255.021 752.147 255.12L753.077 255.347C754.087 255.592 754.765 255.829 755.108 256.058C755.655 256.417 755.929 256.982 755.929 257.753C755.929 258.498 755.646 259.141 755.081 259.683C754.516 260.224 753.655 260.495 752.499 260.495C751.254 260.495 750.373 260.213 749.854 259.648C749.336 259.083 749.059 258.383 749.022 257.55L750.374 257.55Z" fill="#22fc07" fill-rule="nonzero" opacity="1" stroke="none" vectornator:layerName="path"/>
<path d="M758.944 251.808L758.944 257.363C758.944 257.79 759.012 258.139 759.147 258.409C759.397 258.909 759.863 259.159 760.546 259.159C761.525 259.159 762.192 258.722 762.546 257.847C762.738 257.378 762.835 256.735 762.835 255.917L762.835 251.808L764.241 251.808L764.241 260.175L762.913 260.175L762.929 258.941C762.746 259.258 762.52 259.527 762.249 259.745C761.712 260.183 761.061 260.402 760.296 260.402C759.103 260.402 758.291 260.003 757.858 259.206C757.624 258.779 757.507 258.209 757.507 257.495L757.507 251.808L758.944 251.808Z" fill="#22fc07" fill-rule="nonzero" opacity="1" stroke="none" vectornator:layerName="path"/>
<path d="M766.436 251.808L767.827 251.808L767.827 252.995C768.16 252.584 768.462 252.284 768.733 252.097C769.197 251.779 769.723 251.62 770.311 251.62C770.978 251.62 771.515 251.784 771.921 252.113C772.15 252.3 772.358 252.576 772.546 252.941C772.858 252.493 773.225 252.161 773.647 251.945C774.069 251.728 774.543 251.62 775.069 251.62C776.194 251.62 776.96 252.027 777.366 252.839C777.585 253.277 777.694 253.865 777.694 254.605L777.694 260.175L776.233 260.175L776.233 254.363C776.233 253.805 776.094 253.422 775.815 253.214C775.537 253.006 775.197 252.902 774.796 252.902C774.244 252.902 773.768 253.086 773.37 253.456C772.972 253.826 772.772 254.443 772.772 255.308L772.772 260.175L771.343 260.175L771.343 254.714C771.343 254.146 771.275 253.732 771.14 253.472C770.926 253.081 770.528 252.886 769.944 252.886C769.413 252.886 768.93 253.092 768.495 253.503C768.06 253.915 767.843 254.659 767.843 255.738L767.843 260.175L766.436 260.175L766.436 251.808Z" fill="#22fc07" fill-rule="nonzero" opacity="1" stroke="none" vectornator:layerName="path"/>
<path d="M783.249 251.62C783.843 251.62 784.418 251.76 784.975 252.038C785.533 252.317 785.957 252.678 786.249 253.12C786.53 253.542 786.718 254.034 786.811 254.597C786.895 254.982 786.936 255.597 786.936 256.441L780.804 256.441C780.83 257.29 781.03 257.971 781.405 258.484C781.78 258.997 782.361 259.253 783.147 259.253C783.882 259.253 784.468 259.011 784.905 258.527C785.155 258.245 785.332 257.92 785.436 257.55L786.819 257.55C786.783 257.857 786.662 258.2 786.456 258.577C786.25 258.955 786.02 259.264 785.765 259.503C785.337 259.92 784.809 260.201 784.179 260.347C783.84 260.43 783.457 260.472 783.03 260.472C781.988 260.472 781.106 260.093 780.382 259.335C779.658 258.577 779.296 257.516 779.296 256.152C779.296 254.808 779.66 253.717 780.39 252.878C781.119 252.04 782.072 251.62 783.249 251.62ZM785.491 255.323C785.434 254.714 785.301 254.227 785.093 253.863C784.707 253.185 784.064 252.847 783.163 252.847C782.517 252.847 781.975 253.08 781.538 253.546C781.1 254.012 780.869 254.605 780.843 255.323L785.491 255.323Z" fill="#22fc07" fill-rule="nonzero" opacity="1" stroke="none" vectornator:layerName="path"/>
<path d="M788.702 251.808L790.038 251.808L790.038 253.253C790.147 252.972 790.416 252.629 790.843 252.226C791.27 251.822 791.762 251.62 792.319 251.62C792.345 251.62 792.39 251.623 792.452 251.628C792.515 251.633 792.621 251.644 792.772 251.659L792.772 253.144C792.689 253.128 792.612 253.118 792.542 253.113C792.472 253.107 792.395 253.105 792.311 253.105C791.603 253.105 791.059 253.333 790.679 253.788C790.298 254.244 790.108 254.769 790.108 255.363L790.108 260.175L788.702 260.175L788.702 251.808Z" fill="#22fc07" fill-rule="nonzero" opacity="1" stroke="none" vectornator:layerName="path"/>
</g>
<g opacity="1" vectornator:layerName="path">
<clipPath clip-rule="nonzero" id="ClipPath">
<path d="M14.5575 122.675L14.5575 372.675L423.558 372.675L423.558 122.675L14.5575 122.675ZM219.526 260.175L269.589 260.175L269.589 285.175L219.526 285.175L219.526 260.175Z"/>
</clipPath>
<g clip-path="url(#ClipPath)">
<path d="M164.618 273.705C190.928 273.865 296.668 272.775 323.028 272.585M166.328 273.195C170.546 273.269 188.556 273.422 188.556 273.422L294.273 273.976C294.273 273.976 315.879 274.058 321.808 274.085" fill="none" opacity="1" stroke="#02f1f8" stroke-linecap="round" stroke-linejoin="miter" stroke-width="1" vectornator:layerName="path"/>
<path d="M295.288 283.355C301.058 280.495 308.618 278.945 321.048 273.045M292.888 284.645C298.328 281.055 305.108 280.475 321.988 274.025" fill="none" opacity="1" stroke="#02f1f8" stroke-linecap="round" stroke-linejoin="miter" stroke-width="1" vectornator:layerName="path"/>
<path d="M295.368 262.835C300.938 265.455 308.477 269.375 321.048 273.045M292.968 264.125C292.968 264.125 305.227 268.365 321.988 274.025" fill="none" opacity="1" stroke="#02f1f8" stroke-linecap="round" stroke-linejoin="miter" stroke-width="1" vectornator:layerName="path"/>
</g>
</g>
<g opacity="1" vectornator:layerName="text">
<path d="M222.534 265.881L224.698 275.217L227.292 265.881L228.979 265.881L231.573 275.217L233.737 265.881L235.44 265.881L232.425 277.358L230.792 277.358L228.143 267.842L225.479 277.358L223.847 277.358L220.847 265.881L222.534 265.881Z" fill="#02f1f8" fill-rule="nonzero" opacity="1" stroke="none" vectornator:layerName="path"/>
<path d="M236.917 265.881L238.487 265.881L238.487 270.623L244.456 270.623L244.456 265.881L246.026 265.881L246.026 277.358L244.456 277.358L244.456 271.991L238.487 271.991L238.487 277.358L236.917 277.358L236.917 265.881Z" fill="#02f1f8" fill-rule="nonzero" opacity="1" stroke="none" vectornator:layerName="path"/>
<path d="M248.784 265.881L250.354 265.881L250.354 277.358L248.784 277.358L248.784 265.881Z" fill="#02f1f8" fill-rule="nonzero" opacity="1" stroke="none" vectornator:layerName="path"/>
<path d="M253.026 265.881L258.19 265.881C259.211 265.881 260.034 266.169 260.659 266.744C261.284 267.32 261.597 268.129 261.597 269.17C261.597 270.066 261.318 270.846 260.761 271.51C260.203 272.174 259.347 272.506 258.19 272.506L254.581 272.506L254.581 277.358L253.026 277.358L253.026 265.881ZM260.026 269.178C260.026 268.334 259.714 267.761 259.089 267.459C258.745 267.298 258.274 267.217 257.675 267.217L254.581 267.217L254.581 271.194L257.675 271.194C258.373 271.194 258.939 271.045 259.374 270.748C259.809 270.451 260.026 269.928 260.026 269.178Z" fill="#02f1f8" fill-rule="nonzero" opacity="1" stroke="none" vectornator:layerName="path"/>
</g>
<g opacity="1" vectornator:layerName="path">
<clipPath clip-rule="nonzero" id="ClipPath_2">
<path d="M14.5575 122.675L14.5575 372.675L784.558 372.675L784.558 122.675L14.5575 122.675ZM578.745 260.175L631.37 260.175L631.37 285.175L578.745 285.175L578.745 260.175Z"/>
</clipPath>
<g clip-path="url(#ClipPath_2)">
<path d="M526.428 271.785C552.868 271.745 656.998 271.785 683.378 271.915M525.418 273.925C548.105 274.052 627.799 273.351 667.937 273.124C675.318 273.082 681.362 273.057 685.467 273.055" fill="none" opacity="1" stroke="#22fc07" stroke-linecap="round" stroke-linejoin="miter" stroke-width="1" vectornator:layerName="path"/>
<path d="M655.848 281.495C662.638 281.065 670.268 277.795 684.888 273.865M656.638 283.845C656.638 283.845 676.638 275.955 685.548 273.725" fill="none" opacity="1" stroke="#22fc07" stroke-linecap="round" stroke-linejoin="miter" stroke-width="1" vectornator:layerName="path"/>
<path d="M655.738 260.975C662.458 265.295 670.118 266.785 684.888 273.865M656.528 263.315C668.018 267.015 676.648 269.985 685.548 273.725" fill="none" opacity="1" stroke="#22fc07" stroke-linecap="round" stroke-linejoin="miter" stroke-width="1" vectornator:layerName="path"/>
</g>
</g>
<g opacity="1" vectornator:layerName="text">
<path d="M585.025 265.881L587.189 275.217L589.783 265.881L591.47 265.881L594.064 275.217L596.228 265.881L597.931 265.881L594.916 277.358L593.283 277.358L590.634 267.842L587.97 277.358L586.337 277.358L583.337 265.881L585.025 265.881Z" fill="#22fc07" fill-rule="nonzero" opacity="1" stroke="none" vectornator:layerName="path"/>
<path d="M599.408 265.881L600.978 265.881L600.978 270.623L606.947 270.623L606.947 265.881L608.517 265.881L608.517 277.358L606.947 277.358L606.947 271.991L600.978 271.991L600.978 277.358L599.408 277.358L599.408 265.881Z" fill="#22fc07" fill-rule="nonzero" opacity="1" stroke="none" vectornator:layerName="path"/>
<path d="M611.072 265.881L619.439 265.881L619.439 267.287L612.587 267.287L612.587 270.772L618.923 270.772L618.923 272.1L612.587 272.1L612.587 275.991L619.556 275.991L619.556 277.358L611.072 277.358L611.072 265.881Z" fill="#22fc07" fill-rule="nonzero" opacity="1" stroke="none" vectornator:layerName="path"/>
<path d="M621.744 265.881L626.908 265.881C627.929 265.881 628.752 266.169 629.377 266.744C630.002 267.32 630.314 268.129 630.314 269.17C630.314 270.066 630.035 270.846 629.478 271.51C628.921 272.174 628.064 272.506 626.908 272.506L623.298 272.506L623.298 277.358L621.744 277.358L621.744 265.881ZM628.744 269.178C628.744 268.334 628.431 267.761 627.806 267.459C627.462 267.298 626.991 267.217 626.392 267.217L623.298 267.217L623.298 271.194L626.392 271.194C627.09 271.194 627.656 271.045 628.091 270.748C628.526 270.451 628.744 269.928 628.744 269.178Z" fill="#22fc07" fill-rule="nonzero" opacity="1" stroke="none" vectornator:layerName="path"/>
</g>
<g opacity="1" vectornator:layerName="g">
<path d="M685.827 148.355C689.558 143.845 690.548 142.375 695.017 137.795M685.827 148.355C689.957 143.785 693.457 139.585 695.017 137.795M685.567 154.755C692.128 147.095 696.597 141.235 704.597 132.865M685.567 154.755C690.028 148.525 694.548 144.495 704.597 132.865M685.308 161.155C693.188 151.685 698.967 145.865 710.237 132.475M685.308 161.155C693.577 152.155 701.428 142.435 710.237 132.475M685.697 166.795C694.067 158.455 698.607 150.235 715.227 132.835M685.697 166.795C694.967 156.835 701.878 146.875 715.227 132.835M685.438 173.195C697.577 160.105 706.967 145.005 720.867 132.435M685.438 173.195C699.248 158.035 713.357 141.955 720.867 132.435M685.837 178.835C694.188 167.085 705.908 157.745 725.857 132.795M685.837 178.835C695.168 168.695 704.518 157.885 725.857 132.795M685.577 185.235C703.947 167.925 718.967 144.915 731.498 132.405M685.577 185.235C697.077 173.005 709.808 159.595 731.498 132.405M685.308 191.635C696.077 180.255 707.768 167.775 736.487 132.765M685.308 191.635C695.927 179.185 706.398 166.525 736.487 132.765M685.048 198.025C701.178 176.385 720.168 157.115 741.467 133.125M685.048 198.025C703.097 177.225 719.648 157.425 741.467 133.125M686.758 202.165C702.857 184.315 718.217 168.665 747.117 132.725M686.758 202.165C705.487 182.165 721.678 161.225 747.117 132.725M688.467 206.295C709.227 185.145 728.378 164.365 752.097 133.085M688.467 206.295C710.908 182.665 731.888 156.715 752.097 133.085M691.487 208.925C709.888 187.345 728.688 166.775 757.748 132.695M691.487 208.925C715.998 180.655 741.697 151.655 757.748 132.695M694.498 211.545C709.438 193.835 725.207 176.915 762.727 133.055M694.498 211.545C722.038 180.895 747.607 150.105 762.727 133.055M698.827 212.655C719.628 187.785 740.778 163.195 768.377 132.665M698.827 212.655C718.447 188.125 740.487 165.095 768.377 132.665M703.168 213.775C726.587 187.085 747.347 162.065 773.357 133.025M703.168 213.775C726.168 189.085 746.587 163.395 773.357 133.025M707.498 214.885C728.617 188.075 752.617 160.645 779.008 132.625M707.498 214.885C731.457 185.905 756.898 156.885 779.008 132.625M712.477 215.245C733.808 189.605 757.847 159.925 783.988 132.985M712.477 215.245C729.377 196.595 746.087 176.385 783.988 132.985M718.128 214.855C747.668 183.575 773.197 153.275 789.638 132.595M718.128 214.855C742.877 186.435 767.607 159.645 789.638 132.595M723.107 215.215C743.697 194.895 759.097 175.155 794.617 132.955M723.107 215.215C744.617 189.265 767.967 163.775 794.617 132.955M728.758 214.825C757.427 186.305 781.998 153.435 800.268 132.555M728.758 214.825C754.178 188.215 778.898 159.495 800.268 132.555M733.737 215.185C757.008 185.445 783.457 158.065 805.248 132.915M733.737 215.185C757.178 187.475 780.998 159.495 805.248 132.915M739.388 214.785C753.808 199.055 770.038 179.205 809.587 134.035M739.388 214.785C763.337 188.325 786.678 160.765 809.587 134.035M744.367 215.145C761.808 196.145 780.278 171.785 813.918 135.145M744.367 215.145C765.278 189.615 787.947 164.555 813.918 135.145M750.018 214.755C766.758 195.385 785.238 172.335 818.248 136.265M750.018 214.755C774.558 184.875 800.918 154.555 818.248 136.265M754.998 215.115C778.688 184.885 802.967 159.115 820.607 139.645M754.998 215.115C777.028 188.475 800.658 162.145 820.607 139.645M760.648 214.715C779.717 192.315 802.258 170.475 823.627 142.265M760.648 214.715C775.538 197.475 789.227 179.995 823.627 142.265M765.627 215.075C783.038 194.745 802.168 173.425 825.337 146.395M765.627 215.075C784.748 193.455 803.428 170.005 825.337 146.395M770.617 215.435C794.727 188.735 815.597 165.805 827.038 150.535M770.617 215.435C787.788 195.505 806.707 173.845 827.038 150.535M776.258 215.045C788.857 201.855 799.248 191.485 827.438 156.175M776.258 215.045C786.778 203.405 796.577 192.155 827.438 156.175M781.248 215.405C799.147 194.885 816.888 175.055 827.178 162.575M781.248 215.405C797.837 194.895 816.648 175.115 827.178 162.575M786.888 215.005C801.158 201.795 810.908 185.595 826.908 168.975M786.888 215.005C801.207 198.675 814.678 182.935 826.908 168.975M791.877 215.365C805.188 201.115 815.447 188.215 827.308 174.615M791.877 215.365C799.607 206.955 808.008 196.035 827.308 174.615M797.518 214.975C808.327 204.405 814.548 192.255 827.048 181.015M797.518 214.975C804.428 206.585 811.477 199.015 827.048 181.015M804.477 213.065C811.028 207.975 813.798 199.355 827.438 186.655M804.477 213.065C812.768 203.195 821.518 193.285 827.438 186.655M811.428 211.165C816.538 204.165 821.447 197.905 826.518 193.805M811.428 211.165C816.197 205.685 818.528 201.875 826.518 193.805" fill="none" opacity="1" stroke="#22fc07" stroke-linecap="round" stroke-linejoin="miter" stroke-width="0.5" vectornator:layerName="path"/>
<path d="M704.558 132.675C728.188 133.795 753.607 134.235 804.558 132.675M704.558 132.675C726.008 132.075 747.827 131.145 804.558 132.675M804.558 132.675C816.748 131.735 823.117 141.315 824.558 152.675M804.558 132.675C817.347 133.915 826.688 141.075 824.558 152.675M824.558 152.675C823.678 164.605 825.917 176.325 824.558 192.675M824.558 152.675C824.758 162.085 824.388 169.345 824.558 192.675M824.558 192.675C824.607 206.875 816.498 214.355 804.558 212.675M824.558 192.675C825.827 207.215 816.018 210.965 804.558 212.675M804.558 212.675C779.508 214.435 750.798 212.765 704.558 212.675M804.558 212.675C774.467 211.235 745.678 213.005 704.558 212.675M704.558 212.675C689.317 212.125 683.278 206.845 684.558 192.675M704.558 212.675C691.748 210.785 685.628 204.755 684.558 192.675M684.558 192.675C683.498 186.185 685.768 177.205 684.558 152.675M684.558 192.675C684.278 181.545 683.288 172.615 684.558 152.675M684.558 152.675C684.597 139.345 690.097 134.295 704.558 132.675M684.558 152.675C685.898 139.905 692.847 134.715 704.558 132.675" fill="none" opacity="1" stroke="#22fc07" stroke-linecap="round" stroke-linejoin="miter" stroke-width="1" vectornator:layerName="path"/>
</g>
<g opacity="1" vectornator:layerName="text">
<path d="M725.21 148.386C726.663 148.386 727.791 148.769 728.593 149.534C729.395 150.3 729.84 151.17 729.929 152.144L728.413 152.144C728.241 151.404 727.899 150.818 727.386 150.386C726.873 149.954 726.153 149.738 725.225 149.738C724.095 149.738 723.182 150.135 722.487 150.929C721.792 151.723 721.444 152.941 721.444 154.581C721.444 155.925 721.758 157.015 722.386 157.851C723.013 158.687 723.949 159.105 725.194 159.105C726.34 159.105 727.212 158.665 727.811 157.784C728.129 157.321 728.366 156.711 728.522 155.956L730.038 155.956C729.903 157.165 729.455 158.178 728.694 158.995C727.783 159.98 726.554 160.472 725.007 160.472C723.673 160.472 722.554 160.068 721.647 159.261C720.455 158.193 719.858 156.545 719.858 154.316C719.858 152.623 720.306 151.235 721.202 150.152C722.171 148.974 723.507 148.386 725.21 148.386Z" fill="#22fc07" fill-rule="nonzero" opacity="1" stroke="none" vectornator:layerName="path"/>
<path d="M735.061 159.269C735.994 159.269 736.633 158.916 736.979 158.21C737.326 157.504 737.499 156.719 737.499 155.855C737.499 155.073 737.374 154.438 737.124 153.948C736.728 153.178 736.046 152.792 735.077 152.792C734.218 152.792 733.593 153.12 733.202 153.777C732.811 154.433 732.616 155.224 732.616 156.152C732.616 157.042 732.811 157.784 733.202 158.378C733.593 158.972 734.212 159.269 735.061 159.269ZM735.116 151.566C736.194 151.566 737.106 151.925 737.85 152.644C738.595 153.363 738.968 154.42 738.968 155.816C738.968 157.165 738.64 158.279 737.983 159.159C737.327 160.04 736.309 160.48 734.929 160.48C733.778 160.48 732.863 160.09 732.186 159.312C731.509 158.533 731.171 157.488 731.171 156.175C731.171 154.769 731.528 153.649 732.241 152.816C732.955 151.982 733.913 151.566 735.116 151.566Z" fill="#22fc07" fill-rule="nonzero" opacity="1" stroke="none" vectornator:layerName="path"/>
<path d="M740.64 151.808L741.975 151.808L741.975 152.995C742.371 152.506 742.791 152.154 743.233 151.941C743.676 151.727 744.168 151.62 744.71 151.62C745.897 151.62 746.699 152.034 747.116 152.863C747.345 153.316 747.46 153.964 747.46 154.808L747.46 160.175L746.03 160.175L746.03 154.902C746.03 154.391 745.955 153.98 745.804 153.667C745.554 153.146 745.1 152.886 744.444 152.886C744.111 152.886 743.837 152.92 743.624 152.988C743.238 153.102 742.9 153.331 742.608 153.675C742.374 153.951 742.222 154.236 742.151 154.53C742.081 154.825 742.046 155.245 742.046 155.792L742.046 160.175L740.64 160.175L740.64 151.808Z" fill="#22fc07" fill-rule="nonzero" opacity="1" stroke="none" vectornator:layerName="path"/>
<path d="M750.374 157.55C750.416 158.019 750.533 158.378 750.725 158.628C751.08 159.081 751.694 159.308 752.569 159.308C753.09 159.308 753.548 159.195 753.944 158.968C754.34 158.741 754.538 158.391 754.538 157.917C754.538 157.558 754.379 157.284 754.061 157.097C753.858 156.982 753.457 156.849 752.858 156.698L751.741 156.417C751.028 156.24 750.501 156.042 750.163 155.823C749.559 155.443 749.257 154.917 749.257 154.245C749.257 153.454 749.542 152.813 750.112 152.323C750.682 151.834 751.449 151.589 752.413 151.589C753.673 151.589 754.582 151.959 755.14 152.698C755.488 153.167 755.658 153.672 755.647 154.214L754.319 154.214C754.293 153.896 754.181 153.607 753.983 153.347C753.66 152.977 753.1 152.792 752.304 152.792C751.772 152.792 751.37 152.894 751.097 153.097C750.823 153.3 750.686 153.568 750.686 153.902C750.686 154.266 750.866 154.558 751.225 154.777C751.434 154.907 751.741 155.021 752.147 155.12L753.077 155.347C754.087 155.592 754.765 155.829 755.108 156.058C755.655 156.417 755.929 156.982 755.929 157.753C755.929 158.498 755.646 159.141 755.081 159.683C754.516 160.224 753.655 160.495 752.499 160.495C751.254 160.495 750.373 160.213 749.854 159.648C749.336 159.083 749.059 158.383 749.022 157.55L750.374 157.55Z" fill="#22fc07" fill-rule="nonzero" opacity="1" stroke="none" vectornator:layerName="path"/>
<path d="M758.944 151.808L758.944 157.363C758.944 157.79 759.012 158.139 759.147 158.409C759.397 158.909 759.863 159.159 760.546 159.159C761.525 159.159 762.192 158.722 762.546 157.847C762.738 157.378 762.835 156.735 762.835 155.917L762.835 151.808L764.241 151.808L764.241 160.175L762.913 160.175L762.929 158.941C762.746 159.258 762.52 159.527 762.249 159.745C761.712 160.183 761.061 160.402 760.296 160.402C759.103 160.402 758.291 160.003 757.858 159.206C757.624 158.779 757.507 158.209 757.507 157.495L757.507 151.808L758.944 151.808Z" fill="#22fc07" fill-rule="nonzero" opacity="1" stroke="none" vectornator:layerName="path"/>
<path d="M766.436 151.808L767.827 151.808L767.827 152.995C768.16 152.584 768.462 152.284 768.733 152.097C769.197 151.779 769.723 151.62 770.311 151.62C770.978 151.62 771.515 151.784 771.921 152.113C772.15 152.3 772.358 152.576 772.546 152.941C772.858 152.493 773.225 152.161 773.647 151.945C774.069 151.728 774.543 151.62 775.069 151.62C776.194 151.62 776.96 152.027 777.366 152.839C777.585 153.277 777.694 153.865 777.694 154.605L777.694 160.175L776.233 160.175L776.233 154.363C776.233 153.805 776.094 153.422 775.815 153.214C775.537 153.006 775.197 152.902 774.796 152.902C774.244 152.902 773.768 153.086 773.37 153.456C772.972 153.826 772.772 154.443 772.772 155.308L772.772 160.175L771.343 160.175L771.343 154.714C771.343 154.146 771.275 153.732 771.14 153.472C770.926 153.081 770.528 152.886 769.944 152.886C769.413 152.886 768.93 153.092 768.495 153.503C768.06 153.915 767.843 154.659 767.843 155.738L767.843 160.175L766.436 160.175L766.436 151.808Z" fill="#22fc07" fill-rule="nonzero" opacity="1" stroke="none" vectornator:layerName="path"/>
<path d="M783.249 151.62C783.843 151.62 784.418 151.76 784.975 152.038C785.533 152.317 785.957 152.678 786.249 153.12C786.53 153.542 786.718 154.034 786.811 154.597C786.895 154.982 786.936 155.597 786.936 156.441L780.804 156.441C780.83 157.29 781.03 157.971 781.405 158.484C781.78 158.997 782.361 159.253 783.147 159.253C783.882 159.253 784.468 159.011 784.905 158.527C785.155 158.245 785.332 157.92 785.436 157.55L786.819 157.55C786.783 157.857 786.662 158.2 786.456 158.577C786.25 158.955 786.02 159.264 785.765 159.503C785.337 159.92 784.809 160.201 784.179 160.347C783.84 160.43 783.457 160.472 783.03 160.472C781.988 160.472 781.106 160.093 780.382 159.335C779.658 158.577 779.296 157.516 779.296 156.152C779.296 154.808 779.66 153.717 780.39 152.878C781.119 152.04 782.072 151.62 783.249 151.62ZM785.491 155.323C785.434 154.714 785.301 154.227 785.093 153.863C784.707 153.185 784.064 152.847 783.163 152.847C782.517 152.847 781.975 153.08 781.538 153.546C781.1 154.012 780.869 154.605 780.843 155.323L785.491 155.323Z" fill="#22fc07" fill-rule="nonzero" opacity="1" stroke="none" vectornator:layerName="path"/>
<path d="M788.702 151.808L790.038 151.808L790.038 153.253C790.147 152.972 790.416 152.629 790.843 152.226C791.27 151.822 791.762 151.62 792.319 151.62C792.345 151.62 792.39 151.623 792.452 151.628C792.515 151.633 792.621 151.644 792.772 151.659L792.772 153.144C792.689 153.128 792.612 153.118 792.542 153.113C792.472 153.107 792.395 153.105 792.311 153.105C791.603 153.105 791.059 153.333 790.679 153.788C790.298 154.244 790.108 154.769 790.108 155.363L790.108 160.175L788.702 160.175L788.702 151.808Z" fill="#22fc07" fill-rule="nonzero" opacity="1" stroke="none" vectornator:layerName="path"/>
</g>
<g opacity="1" vectornator:layerName="g">
<path d="M685.827 348.355C689.498 344.885 689.977 341.505 695.017 337.795M685.827 348.355C689.008 345.005 691.237 340.925 695.017 337.795M685.567 354.755C692.597 347.605 700.678 338.605 704.597 332.865M685.567 354.755C689.508 349.155 695.117 344.765 704.597 332.865M685.308 361.155C691.558 355.095 697.528 348.105 710.237 332.475M685.308 361.155C695.227 351.685 703.467 339.345 710.237 332.475M685.697 366.795C692.577 359.985 702.158 351.415 715.227 332.835M685.697 366.795C691.888 360.175 698.558 352.985 715.227 332.835M685.438 373.195C692.138 363.965 698.947 354.915 720.867 332.435M685.438 373.195C695.757 359.825 707.518 347.575 720.867 332.435M685.837 378.835C699.327 363.595 709.528 350.335 725.857 332.795M685.837 378.835C696.258 367.015 706.398 356.355 725.857 332.795M685.577 385.235C700.918 371.015 711.528 354.185 731.498 332.405M685.577 385.235C700.158 369.875 714.018 354.555 731.498 332.405M685.308 391.635C703.808 373.735 720.027 351.445 736.487 332.765M685.308 391.635C699.748 374.905 714.227 358.775 736.487 332.765M685.048 398.025C705.237 374.555 728.268 349.185 741.467 333.125M685.048 398.025C697.317 383.685 709.808 369.945 741.467 333.125M686.758 402.165C712.117 375.335 733.867 347.575 747.117 332.725M686.758 402.165C705.107 380.515 723.587 359.135 747.117 332.725M688.467 406.295C705.727 383.375 727.327 363.175 752.097 333.085M688.467 406.295C709.327 382.145 729.148 358.785 752.097 333.085M691.487 408.925C713.977 385.725 732.028 360.545 757.748 332.695M691.487 408.925C711.847 384.075 733.567 359.185 757.748 332.695M694.498 411.545C716.798 384.165 741.678 356.025 762.727 333.055M694.498 411.545C715.528 386.485 737.957 359.655 762.727 333.055M698.827 412.655C715.628 395.335 731.477 375.135 768.377 332.665M698.827 412.655C726.837 382.335 752.617 352.205 768.377 332.665M703.168 413.775C727.158 385.135 751.717 360.195 773.357 333.025M703.168 413.775C722.548 393.605 739.067 373.585 773.357 333.025M707.498 414.885C728.087 388.565 752.697 362.995 779.008 332.625M707.498 414.885C735.378 385.735 760.888 354.095 779.008 332.625M712.477 415.245C738.378 389.335 763.558 359.805 783.988 332.985M712.477 415.245C736.357 385.935 762.178 357.755 783.988 332.985M718.128 414.855C741.678 386.875 765.567 358.235 789.638 332.595M718.128 414.855C733.227 397.855 749.258 378.825 789.638 332.595M723.107 415.215C747.077 389.195 770.447 360.915 794.617 332.955M723.107 415.215C741.087 394.615 759.908 371.415 794.617 332.955M728.758 414.825C749.798 387.705 773.857 362.065 800.268 332.555M728.758 414.825C747.268 394.085 766.237 371.375 800.268 332.555M733.737 415.185C758.548 383.825 786.827 351.295 805.248 332.915M733.737 415.185C760.168 383.275 786.597 353.945 805.248 332.915M739.388 414.785C762.217 386.045 788.107 357.985 809.587 334.035M739.388 414.785C761.117 389.255 784.638 364.255 809.587 334.035M744.367 415.145C761.168 396.025 775.617 375.915 813.918 335.145M744.367 415.145C764.857 391.535 786.367 367.135 813.918 335.145M750.018 414.755C771.827 390.395 792.688 362.475 818.248 336.265M750.018 414.755C778.107 383.305 804.138 353.895 818.248 336.265M754.998 415.115C774.488 392.315 797.607 365.935 820.607 339.645M754.998 415.115C769.957 398.475 783.768 383.385 820.607 339.645M760.648 414.715C773.888 400.265 785.488 386.975 823.627 342.265M760.648 414.715C784.148 387.585 807.847 360.635 823.627 342.265M765.627 415.075C786.758 388.165 812.178 362.605 825.337 346.395M765.627 415.075C785.207 394.375 802.278 372.255 825.337 346.395M770.617 415.435C790.788 392.185 809.367 370.315 827.038 350.535M770.617 415.435C790.538 393.775 808.577 372.475 827.038 350.535M776.258 415.045C787.278 403.375 799.668 386.605 827.438 356.175M776.258 415.045C793.308 396.665 807.658 377.665 827.438 356.175M781.248 415.405C792.038 402.015 803.188 390.265 827.178 362.575M781.248 415.405C792.648 403.425 802.337 389.565 827.178 362.575M786.888 415.005C801.197 397.775 816.457 380.535 826.908 368.975M786.888 415.005C802.058 397.075 817.048 379.525 826.908 368.975M791.877 415.365C802.738 402.825 808.727 393.665 827.308 374.615M791.877 415.365C800.317 406.065 809.508 396.465 827.308 374.615M797.518 414.975C803.347 407.535 810.008 398.315 827.048 381.015M797.518 414.975C805.837 406.695 812.567 399.605 827.048 381.015M804.477 413.065C814.467 401.675 822.548 394.005 827.438 386.655M804.477 413.065C812.938 404.035 822.327 393.995 827.438 386.655M811.428 411.165C813.758 408.505 819.967 403.595 826.518 393.805M811.428 411.165C815.817 408.355 819.067 404.045 826.518 393.805" fill="none" opacity="1" stroke="#22fc07" stroke-linecap="round" stroke-linejoin="miter" stroke-width="0.5" vectornator:layerName="path"/>
<path d="M704.558 332.675C734.788 331.435 762.798 331.215 804.558 332.675M704.558 332.675C727.977 332.985 752.357 333.855 804.558 332.675M804.558 332.675C816.248 333.605 823.467 337.455 824.558 352.675M804.558 332.675C816.148 331.445 822.988 341.345 824.558 352.675M824.558 352.675C826.477 364.995 824.877 379.085 824.558 392.675M824.558 352.675C824.947 360.415 825.758 369.865 824.558 392.675M824.558 392.675C825.048 407.415 819.668 411.325 804.558 412.675M824.558 392.675C822.947 404.905 816.058 413.115 804.558 412.675M804.558 412.675C778.178 414.325 749.107 413.265 704.558 412.675M804.558 412.675C777.248 412.355 749.018 413.015 704.558 412.675M704.558 412.675C693.087 412.955 683.167 407.995 684.558 392.675M704.558 412.675C692.498 410.865 684.178 407.045 684.558 392.675M684.558 392.675C684.587 381.885 684.047 366.185 684.558 352.675M684.558 392.675C684.607 376.765 683.707 360.795 684.558 352.675M684.558 352.675C686.237 341.085 692.317 333.115 704.558 332.675M684.558 352.675C682.847 337.275 688.957 332.535 704.558 332.675" fill="none" opacity="1" stroke="#22fc07" stroke-linecap="round" stroke-linejoin="miter" stroke-width="1" vectornator:layerName="path"/>
</g>
<g opacity="1" vectornator:layerName="text">
<path d="M725.21 348.386C726.663 348.386 727.791 348.769 728.593 349.534C729.395 350.3 729.84 351.17 729.929 352.144L728.413 352.144C728.241 351.404 727.899 350.818 727.386 350.386C726.873 349.954 726.153 349.738 725.225 349.738C724.095 349.738 723.182 350.135 722.487 350.929C721.792 351.723 721.444 352.941 721.444 354.581C721.444 355.925 721.758 357.015 722.386 357.851C723.013 358.687 723.949 359.105 725.194 359.105C726.34 359.105 727.212 358.665 727.811 357.784C728.129 357.321 728.366 356.711 728.522 355.956L730.038 355.956C729.903 357.165 729.455 358.178 728.694 358.995C727.783 359.98 726.554 360.472 725.007 360.472C723.673 360.472 722.554 360.068 721.647 359.261C720.455 358.193 719.858 356.545 719.858 354.316C719.858 352.623 720.306 351.235 721.202 350.152C722.171 348.974 723.507 348.386 725.21 348.386Z" fill="#22fc07" fill-rule="nonzero" opacity="1" stroke="none" vectornator:layerName="path"/>
<path d="M735.061 359.269C735.994 359.269 736.633 358.916 736.979 358.21C737.326 357.504 737.499 356.719 737.499 355.855C737.499 355.073 737.374 354.438 737.124 353.948C736.728 353.178 736.046 352.792 735.077 352.792C734.218 352.792 733.593 353.12 733.202 353.777C732.811 354.433 732.616 355.224 732.616 356.152C732.616 357.042 732.811 357.784 733.202 358.378C733.593 358.972 734.212 359.269 735.061 359.269ZM735.116 351.566C736.194 351.566 737.106 351.925 737.85 352.644C738.595 353.363 738.968 354.42 738.968 355.816C738.968 357.165 738.64 358.279 737.983 359.159C737.327 360.04 736.309 360.48 734.929 360.48C733.778 360.48 732.863 360.09 732.186 359.312C731.509 358.533 731.171 357.488 731.171 356.175C731.171 354.769 731.528 353.649 732.241 352.816C732.955 351.982 733.913 351.566 735.116 351.566Z" fill="#22fc07" fill-rule="nonzero" opacity="1" stroke="none" vectornator:layerName="path"/>
<path d="M740.64 351.808L741.975 351.808L741.975 352.995C742.371 352.506 742.791 352.154 743.233 351.941C743.676 351.727 744.168 351.62 744.71 351.62C745.897 351.62 746.699 352.034 747.116 352.863C747.345 353.316 747.46 353.964 747.46 354.808L747.46 360.175L746.03 360.175L746.03 354.902C746.03 354.391 745.955 353.98 745.804 353.667C745.554 353.146 745.1 352.886 744.444 352.886C744.111 352.886 743.837 352.92 743.624 352.988C743.238 353.102 742.9 353.331 742.608 353.675C742.374 353.951 742.222 354.236 742.151 354.53C742.081 354.825 742.046 355.245 742.046 355.792L742.046 360.175L740.64 360.175L740.64 351.808Z" fill="#22fc07" fill-rule="nonzero" opacity="1" stroke="none" vectornator:layerName="path"/>
<path d="M750.374 357.55C750.416 358.019 750.533 358.378 750.725 358.628C751.08 359.081 751.694 359.308 752.569 359.308C753.09 359.308 753.548 359.195 753.944 358.968C754.34 358.741 754.538 358.391 754.538 357.917C754.538 357.558 754.379 357.284 754.061 357.097C753.858 356.982 753.457 356.849 752.858 356.698L751.741 356.417C751.028 356.24 750.501 356.042 750.163 355.823C749.559 355.443 749.257 354.917 749.257 354.245C749.257 353.454 749.542 352.813 750.112 352.323C750.682 351.834 751.449 351.589 752.413 351.589C753.673 351.589 754.582 351.959 755.14 352.698C755.488 353.167 755.658 353.672 755.647 354.214L754.319 354.214C754.293 353.896 754.181 353.607 753.983 353.347C753.66 352.977 753.1 352.792 752.304 352.792C751.772 352.792 751.37 352.894 751.097 353.097C750.823 353.3 750.686 353.568 750.686 353.902C750.686 354.266 750.866 354.558 751.225 354.777C751.434 354.907 751.741 355.021 752.147 355.12L753.077 355.347C754.087 355.592 754.765 355.829 755.108 356.058C755.655 356.417 755.929 356.982 755.929 357.753C755.929 358.498 755.646 359.141 755.081 359.683C754.516 360.224 753.655 360.495 752.499 360.495C751.254 360.495 750.373 360.213 749.854 359.648C749.336 359.083 749.059 358.383 749.022 357.55L750.374 357.55Z" fill="#22fc07" fill-rule="nonzero" opacity="1" stroke="none" vectornator:layerName="path"/>
<path d="M758.944 351.808L758.944 357.363C758.944 357.79 759.012 358.139 759.147 358.409C759.397 358.909 759.863 359.159 760.546 359.159C761.525 359.159 762.192 358.722 762.546 357.847C762.738 357.378 762.835 356.735 762.835 355.917L762.835 351.808L764.241 351.808L764.241 360.175L762.913 360.175L762.929 358.941C762.746 359.258 762.52 359.527 762.249 359.745C761.712 360.183 761.061 360.402 760.296 360.402C759.103 360.402 758.291 360.003 757.858 359.206C757.624 358.779 757.507 358.209 757.507 357.495L757.507 351.808L758.944 351.808Z" fill="#22fc07" fill-rule="nonzero" opacity="1" stroke="none" vectornator:layerName="path"/>
<path d="M766.436 351.808L767.827 351.808L767.827 352.995C768.16 352.584 768.462 352.284 768.733 352.097C769.197 351.779 769.723 351.62 770.311 351.62C770.978 351.62 771.515 351.784 771.921 352.113C772.15 352.3 772.358 352.576 772.546 352.941C772.858 352.493 773.225 352.161 773.647 351.945C774.069 351.728 774.543 351.62 775.069 351.62C776.194 351.62 776.96 352.027 777.366 352.839C777.585 353.277 777.694 353.865 777.694 354.605L777.694 360.175L776.233 360.175L776.233 354.363C776.233 353.805 776.094 353.422 775.815 353.214C775.537 353.006 775.197 352.902 774.796 352.902C774.244 352.902 773.768 353.086 773.37 353.456C772.972 353.826 772.772 354.443 772.772 355.308L772.772 360.175L771.343 360.175L771.343 354.714C771.343 354.146 771.275 353.732 771.14 353.472C770.926 353.081 770.528 352.886 769.944 352.886C769.413 352.886 768.93 353.092 768.495 353.503C768.06 353.915 767.843 354.659 767.843 355.738L767.843 360.175L766.436 360.175L766.436 351.808Z" fill="#22fc07" fill-rule="nonzero" opacity="1" stroke="none" vectornator:layerName="path"/>
<path d="M783.249 351.62C783.843 351.62 784.418 351.76 784.975 352.038C785.533 352.317 785.957 352.678 786.249 353.12C786.53 353.542 786.718 354.034 786.811 354.597C786.895 354.982 786.936 355.597 786.936 356.441L780.804 356.441C780.83 357.29 781.03 357.971 781.405 358.484C781.78 358.997 782.361 359.253 783.147 359.253C783.882 359.253 784.468 359.011 784.905 358.527C785.155 358.245 785.332 357.92 785.436 357.55L786.819 357.55C786.783 357.857 786.662 358.2 786.456 358.577C786.25 358.955 786.02 359.264 785.765 359.503C785.337 359.92 784.809 360.201 784.179 360.347C783.84 360.43 783.457 360.472 783.03 360.472C781.988 360.472 781.106 360.093 780.382 359.335C779.658 358.577 779.296 357.516 779.296 356.152C779.296 354.808 779.66 353.717 780.39 352.878C781.119 352.04 782.072 351.62 783.249 351.62ZM785.491 355.323C785.434 354.714 785.301 354.227 785.093 353.863C784.707 353.185 784.064 352.847 783.163 352.847C782.517 352.847 781.975 353.08 781.538 353.546C781.1 354.012 780.869 354.605 780.843 355.323L785.491 355.323Z" fill="#22fc07" fill-rule="nonzero" opacity="1" stroke="none" vectornator:layerName="path"/>
<path d="M788.702 351.808L790.038 351.808L790.038 353.253C790.147 352.972 790.416 352.629 790.843 352.226C791.27 351.822 791.762 351.62 792.319 351.62C792.345 351.62 792.39 351.623 792.452 351.628C792.515 351.633 792.621 351.644 792.772 351.659L792.772 353.144C792.689 353.128 792.612 353.118 792.542 353.113C792.472 353.107 792.395 353.105 792.311 353.105C791.603 353.105 791.059 353.333 790.679 353.788C790.298 354.244 790.108 354.769 790.108 355.363L790.108 360.175L788.702 360.175L788.702 351.808Z" fill="#22fc07" fill-rule="nonzero" opacity="1" stroke="none" vectornator:layerName="path"/>
</g>
<g opacity="1" vectornator:layerName="path">
<clipPath clip-rule="nonzero" id="ClipPath_3">
<path d="M14.5575 122.675L14.5575 472.675L784.558 472.675L784.558 122.675L14.5575 122.675ZM578.245 310.175L630.87 310.175L630.87 335.175L578.245 335.175L578.245 310.175Z"/>
</clipPath>
<g clip-path="url(#ClipPath_3)">
<path d="M523.548 272.515C550.328 289.355 657.337 356.145 684.248 372.845M525.218 271.385C544.81 283.972 648.362 351.821 648.362 351.821C648.362 351.821 658.544 358.475 667.236 364.139C675.927 369.802 680.218 372.597 683.128 374.475" fill="none" opacity="1" stroke="#22fc07" stroke-linecap="round" stroke-linejoin="miter" stroke-width="1" vectornator:layerName="path"/>
<path d="M653.648 367.155C660.428 370.055 666.518 371.905 682.378 373.165M654.618 368.445C654.618 368.445 673.548 371.765 682.748 375.425" fill="none" opacity="1" stroke="#22fc07" stroke-linecap="round" stroke-linejoin="miter" stroke-width="1" vectornator:layerName="path"/>
<path d="M664.848 349.955C669.098 356.465 672.778 362.015 682.378 373.165M665.828 351.255C665.828 351.255 677.438 365.755 682.748 375.425" fill="none" opacity="1" stroke="#22fc07" stroke-linecap="round" stroke-linejoin="miter" stroke-width="1" vectornator:layerName="path"/>
</g>
</g>
<g opacity="1" vectornator:layerName="text">
<path d="M585.025 320.184L587.189 329.52L589.783 320.184L591.47 320.184L594.064 329.52L596.228 320.184L597.931 320.184L594.916 331.661L593.283 331.661L590.634 322.145L587.97 331.661L586.337 331.661L583.337 320.184L585.025 320.184Z" fill="#22fc07" fill-rule="nonzero" opacity="1" stroke="none" vectornator:layerName="path"/>
<path d="M599.408 320.184L600.978 320.184L600.978 324.926L606.947 324.926L606.947 320.184L608.517 320.184L608.517 331.661L606.947 331.661L606.947 326.294L600.978 326.294L600.978 331.661L599.408 331.661L599.408 320.184Z" fill="#22fc07" fill-rule="nonzero" opacity="1" stroke="none" vectornator:layerName="path"/>
<path d="M611.072 320.184L619.439 320.184L619.439 321.591L612.587 321.591L612.587 325.075L618.923 325.075L618.923 326.403L612.587 326.403L612.587 330.294L619.556 330.294L619.556 331.661L611.072 331.661L611.072 320.184Z" fill="#22fc07" fill-rule="nonzero" opacity="1" stroke="none" vectornator:layerName="path"/>
<path d="M621.744 320.184L626.908 320.184C627.929 320.184 628.752 320.472 629.377 321.048C630.002 321.623 630.314 322.432 630.314 323.473C630.314 324.369 630.035 325.149 629.478 325.813C628.921 326.477 628.064 326.809 626.908 326.809L623.298 326.809L623.298 331.661L621.744 331.661L621.744 320.184ZM628.744 323.481C628.744 322.637 628.431 322.064 627.806 321.762C627.462 321.601 626.991 321.52 626.392 321.52L623.298 321.52L623.298 325.497L626.392 325.497C627.09 325.497 627.656 325.348 628.091 325.051C628.526 324.755 628.744 324.231 628.744 323.481Z" fill="#22fc07" fill-rule="nonzero" opacity="1" stroke="none" vectornator:layerName="path"/>
</g>
<g opacity="1" vectornator:layerName="path">
<clipPath clip-rule="nonzero" id="ClipPath_4">
<path d="M14.5575 122.675L14.5575 472.675L784.558 472.675L784.558 122.675L14.5575 122.675ZM578.245 210.175L630.87 210.175L630.87 235.175L578.245 235.175L578.245 210.175Z"/>
</clipPath>
<g clip-path="url(#ClipPath_4)">
<path d="M525.588 271.565C552.218 254.885 658.188 188.685 684.558 172.305M524.668 273.595C551.118 257.115 656.668 190.705 683.608 173.645" fill="none" opacity="1" stroke="#22fc07" stroke-linecap="round" stroke-linejoin="miter" stroke-width="1" vectornator:layerName="path"/>
<path d="M663.398 197.365C670.528 188.415 677.958 182.935 685.428 172.545M665.448 197.525C665.448 197.525 677.878 181.725 682.617 173.035" fill="none" opacity="1" stroke="#22fc07" stroke-linecap="round" stroke-linejoin="miter" stroke-width="1" vectornator:layerName="path"/>
<path d="M652.447 180.005C663.018 176.495 673.938 176.535 685.428 172.545M654.498 180.175C664.648 177.245 674.078 175.715 682.617 173.035" fill="none" opacity="1" stroke="#22fc07" stroke-linecap="round" stroke-linejoin="miter" stroke-width="1" vectornator:layerName="path"/>
</g>
</g>
<g opacity="1" vectornator:layerName="text">
<path d="M585.025 216.682L587.189 226.018L589.783 216.682L591.47 216.682L594.064 226.018L596.228 216.682L597.931 216.682L594.916 228.158L593.283 228.158L590.634 218.643L587.97 228.158L586.337 228.158L583.337 216.682L585.025 216.682Z" fill="#22fc07" fill-rule="nonzero" opacity="1" stroke="none" vectornator:layerName="path"/>
<path d="M599.408 216.682L600.978 216.682L600.978 221.424L606.947 221.424L606.947 216.682L608.517 216.682L608.517 228.158L606.947 228.158L606.947 222.791L600.978 222.791L600.978 228.158L599.408 228.158L599.408 216.682Z" fill="#22fc07" fill-rule="nonzero" opacity="1" stroke="none" vectornator:layerName="path"/>
<path d="M611.072 216.682L619.439 216.682L619.439 218.088L612.587 218.088L612.587 221.572L618.923 221.572L618.923 222.901L612.587 222.901L612.587 226.791L619.556 226.791L619.556 228.158L611.072 228.158L611.072 216.682Z" fill="#22fc07" fill-rule="nonzero" opacity="1" stroke="none" vectornator:layerName="path"/>
<path d="M621.744 216.682L626.908 216.682C627.929 216.682 628.752 216.97 629.377 217.545C630.002 218.121 630.314 218.929 630.314 219.971C630.314 220.867 630.035 221.647 629.478 222.311C628.921 222.975 628.064 223.307 626.908 223.307L623.298 223.307L623.298 228.158L621.744 228.158L621.744 216.682ZM628.744 219.979C628.744 219.135 628.431 218.562 627.806 218.26C627.462 218.098 626.991 218.018 626.392 218.018L623.298 218.018L623.298 221.994L626.392 221.994C627.09 221.994 627.656 221.846 628.091 221.549C628.526 221.252 628.744 220.729 628.744 219.979Z" fill="#22fc07" fill-rule="nonzero" opacity="1" stroke="none" vectornator:layerName="path"/>
</g>
<g fill="#e03131" opacity="1" stroke="none" vectornator:layerName="Text 1">
<path d="M412.014 267.424C410.83 267.424 409.854 267.68 409.102 268.192C408.254 268.736 407.838 269.52 407.838 270.512C407.838 271.472 408.27 272.208 409.15 272.72C409.518 272.912 410.398 273.232 411.774 273.648C413.054 274.016 413.87 274.288 414.19 274.48C414.942 274.88 415.326 275.44 415.326 276.16C415.326 276.768 415.038 277.248 414.462 277.6C413.886 277.952 413.118 278.128 412.19 278.128C411.166 278.128 410.398 277.904 409.87 277.488C409.294 277.024 408.942 276.288 408.83 275.296L407.534 275.296C407.63 276.704 408.126 277.744 409.022 278.432C409.79 279.008 410.846 279.296 412.19 279.296C413.55 279.296 414.622 279.008 415.422 278.448C416.222 277.872 416.622 277.072 416.622 276.08C416.622 275.04 416.142 274.24 415.198 273.664C414.718 273.376 413.726 273.008 412.222 272.56C411.118 272.24 410.414 272 410.126 271.84C409.47 271.488 409.15 271.024 409.15 270.448C409.15 269.792 409.422 269.312 409.966 268.992C410.446 268.704 411.102 268.576 411.95 268.576C412.878 268.576 413.598 268.768 414.11 269.184C414.606 269.584 414.926 270.192 415.07 271.024L416.366 271.024C416.254 269.824 415.822 268.912 415.054 268.304C414.318 267.712 413.294 267.424 412.014 267.424Z"/>
<path d="M421.63 267.648L417.134 279.072L418.542 279.072L419.758 275.872L425.006 275.872L426.222 279.072L427.646 279.072L423.15 267.648L421.63 267.648ZM420.174 274.768L422.366 269.056L422.43 269.056L424.59 274.768L420.174 274.768Z"/>
<path d="M427.726 267.648L431.006 279.072L432.462 279.072L435.07 269.552L435.118 269.552L437.71 279.072L439.166 279.072L442.446 267.648L440.974 267.648L438.462 277.232L438.398 277.232L435.806 267.648L434.382 267.648L431.774 277.232L431.71 277.232L429.198 267.648L427.726 267.648Z"/>
</g>
</g>
</g>
</svg>
